<svg xmlns="http://www.w3.org/2000/svg" xmlns:xlink="http://www.w3.org/1999/xlink" width="64" zoomAndPan="magnify" viewBox="0 0 48 34.499999" height="46" preserveAspectRatio="xMidYMid meet" version="1.0"><defs><clipPath id="c53cb1cfff"><path d="M 0.34375 0 L 47.226562 0 L 47.226562 33.527344 L 0.34375 33.527344 Z M 0.34375 0 " clip-rule="nonzero"/></clipPath><clipPath id="d970c13f65"><path d="M 7.734375 0 L 39.714844 0 C 41.675781 0 43.558594 0.777344 44.945312 2.164062 C 46.332031 3.550781 47.109375 5.433594 47.109375 7.394531 L 47.109375 26.132812 C 47.109375 28.09375 46.332031 29.972656 44.945312 31.359375 C 43.558594 32.746094 41.675781 33.527344 39.714844 33.527344 L 7.734375 33.527344 C 5.773438 33.527344 3.894531 32.746094 2.507812 31.359375 C 1.121094 29.972656 0.34375 28.09375 0.34375 26.132812 L 0.34375 7.394531 C 0.34375 5.433594 1.121094 3.550781 2.507812 2.164062 C 3.894531 0.777344 5.773438 0 7.734375 0 Z M 7.734375 0 " clip-rule="nonzero"/></clipPath><clipPath id="c45849ca28"><path d="M 20.144531 25.023438 L 26.609375 25.023438 L 26.609375 28.152344 L 20.144531 28.152344 Z M 20.144531 25.023438 " clip-rule="nonzero"/></clipPath><clipPath id="00404d5581"><path d="M 13.839844 5.234375 L 33 5.234375 L 33 25 L 13.839844 25 Z M 13.839844 5.234375 " clip-rule="nonzero"/></clipPath><clipPath id="7b389a2813"><path d="M 26 6 L 33.800781 6 L 33.800781 14 L 26 14 Z M 26 6 " clip-rule="nonzero"/></clipPath></defs><g clip-path="url(#c53cb1cfff)"><g clip-path="url(#d970c13f65)"><path fill="#333847" d="M 0.34375 0 L 47.097656 0 L 47.097656 33.527344 L 0.34375 33.527344 Z M 0.34375 0 " fill-opacity="1" fill-rule="nonzero"/></g></g><g clip-path="url(#c45849ca28)"><path fill="#e9edf1" d="M 23.398438 28.277344 C 25.15625 28.277344 26.578125 26.855469 26.582031 25.097656 C 26.582031 25.09375 26.578125 25.09375 26.574219 25.09375 L 20.21875 25.09375 C 20.214844 25.09375 20.214844 25.09375 20.214844 25.097656 C 20.21875 26.855469 21.640625 28.277344 23.398438 28.277344 " fill-opacity="1" fill-rule="nonzero"/></g><g clip-path="url(#00404d5581)"><path fill="#e9edf1" d="M 30.84375 21 C 30.496094 20.554688 30.304688 20.007812 30.304688 19.441406 L 30.304688 14.800781 C 30.21875 14.804688 30.128906 14.808594 30.039062 14.808594 C 27.511719 14.808594 25.464844 12.761719 25.464844 10.234375 C 25.464844 9.375 25.703125 8.574219 26.113281 7.886719 C 25.648438 7.691406 25.160156 7.539062 24.652344 7.445312 C 24.652344 7.445312 24.652344 6.515625 24.652344 6.503906 C 24.652344 5.808594 24.089844 5.25 23.398438 5.25 C 22.707031 5.25 22.144531 5.808594 22.144531 6.503906 C 22.144531 6.515625 22.144531 7.445312 22.144531 7.445312 C 18.957031 8.03125 16.535156 10.804688 16.492188 14.152344 L 16.492188 19.441406 C 16.492188 20.007812 16.300781 20.554688 15.953125 21 L 14.078125 23.394531 C 13.839844 23.742188 14.089844 24.214844 14.507812 24.214844 L 32.289062 24.214844 C 32.707031 24.214844 32.957031 23.742188 32.71875 23.394531 L 30.84375 21 " fill-opacity="1" fill-rule="nonzero"/></g><g clip-path="url(#7b389a2813)"><path fill="#f3f6f9" d="M 33.605469 10.234375 C 33.605469 12.203125 32.007812 13.800781 30.039062 13.800781 C 28.070312 13.800781 26.476562 12.203125 26.476562 10.234375 C 26.476562 8.265625 28.070312 6.667969 30.039062 6.667969 C 32.007812 6.667969 33.605469 8.265625 33.605469 10.234375 " fill-opacity="1" fill-rule="nonzero"/></g><path fill="#ffffff" d="M 30.011719 8.488281 L 29.210938 8.917969 L 29.339844 9.425781 L 29.898438 9.125 L 29.898438 11.980469 L 30.5 11.980469 L 30.5 8.488281 L 30.011719 8.488281 " fill-opacity="1" fill-rule="nonzero"/></svg>