<svg xmlns="http://www.w3.org/2000/svg" xmlns:xlink="http://www.w3.org/1999/xlink" width="64" zoomAndPan="magnify" viewBox="0 0 48 47.25" height="63" preserveAspectRatio="xMidYMid meet" version="1.0"><defs><g/><clipPath id="3c7883b637"><path d="M 0.375 0 L 47.625 0 L 47.625 46.511719 L 0.375 46.511719 Z M 0.375 0 " clip-rule="nonzero"/></clipPath><clipPath id="af8f63b5ab"><path d="M 0.375 5.78125 L 47.101562 5.78125 L 47.101562 40.554688 L 0.375 40.554688 Z M 0.375 5.78125 " clip-rule="nonzero"/></clipPath><clipPath id="1f973f0e91"><path d="M 7.757812 5.78125 L 39.695312 5.78125 C 41.652344 5.78125 43.53125 6.558594 44.914062 7.945312 C 46.300781 9.328125 47.078125 11.207031 47.078125 13.164062 L 47.078125 33.171875 C 47.078125 35.128906 46.300781 37.007812 44.914062 38.390625 C 43.53125 39.777344 41.652344 40.554688 39.695312 40.554688 L 7.757812 40.554688 C 5.800781 40.554688 3.921875 39.777344 2.539062 38.390625 C 1.152344 37.007812 0.375 35.128906 0.375 33.171875 L 0.375 13.164062 C 0.375 11.207031 1.152344 9.328125 2.539062 7.945312 C 3.921875 6.558594 5.800781 5.78125 7.757812 5.78125 Z M 7.757812 5.78125 " clip-rule="nonzero"/></clipPath></defs><g clip-path="url(#3c7883b637)"><path fill="#ffffff" d="M 0.375 0 L 47.625 0 L 47.625 46.511719 L 0.375 46.511719 Z M 0.375 0 " fill-opacity="1" fill-rule="nonzero"/></g><g clip-path="url(#af8f63b5ab)"><g clip-path="url(#1f973f0e91)"><path fill="#fdcd56" d="M 0.375 5.78125 L 47.101562 5.78125 L 47.101562 40.554688 L 0.375 40.554688 Z M 0.375 5.78125 " fill-opacity="1" fill-rule="nonzero"/></g></g><g fill="#000000" fill-opacity="1"><g transform="translate(16.529401, 33.214643)"><g><path d="M 8.1875 -10.78125 L 13 -10.78125 L 13 -8.921875 L 8.1875 -8.921875 L 8.1875 -4.0625 L 6.21875 -4.0625 L 6.21875 -8.921875 L 1.40625 -8.921875 L 1.40625 -10.78125 L 6.21875 -10.78125 L 6.21875 -15.640625 L 8.1875 -15.640625 Z M 8.1875 -10.78125 "/></g></g></g></svg>