<svg xmlns="http://www.w3.org/2000/svg" xmlns:xlink="http://www.w3.org/1999/xlink" width="64" zoomAndPan="magnify" viewBox="0 0 48 34.499999" height="46" preserveAspectRatio="xMidYMid meet" version="1.0"><defs><clipPath id="26d18eebc8"><path d="M 0.34375 0 L 47.65625 0 L 47.65625 34.007812 L 0.34375 34.007812 Z M 0.34375 0 " clip-rule="nonzero"/></clipPath><clipPath id="407780c8d4"><path d="M 0.34375 0 L 47.226562 0 L 47.226562 33.527344 L 0.34375 33.527344 Z M 0.34375 0 " clip-rule="nonzero"/></clipPath><clipPath id="35263b8712"><path d="M 7.734375 0 L 39.714844 0 C 41.675781 0 43.558594 0.777344 44.945312 2.164062 C 46.332031 3.550781 47.109375 5.433594 47.109375 7.394531 L 47.109375 26.132812 C 47.109375 28.09375 46.332031 29.972656 44.945312 31.359375 C 43.558594 32.746094 41.675781 33.527344 39.714844 33.527344 L 7.734375 33.527344 C 5.773438 33.527344 3.894531 32.746094 2.507812 31.359375 C 1.121094 29.972656 0.34375 28.09375 0.34375 26.132812 L 0.34375 7.394531 C 0.34375 5.433594 1.121094 3.550781 2.507812 2.164062 C 3.894531 0.777344 5.773438 0 7.734375 0 Z M 7.734375 0 " clip-rule="nonzero"/></clipPath><clipPath id="8c08e8cf5b"><path d="M 14.144531 7.179688 L 30 7.179688 L 30 23 L 14.144531 23 Z M 14.144531 7.179688 " clip-rule="nonzero"/></clipPath><clipPath id="f84489ccb1"><path d="M 25 18 L 33.367188 18 L 33.367188 26.402344 L 25 26.402344 Z M 25 18 " clip-rule="nonzero"/></clipPath></defs><g clip-path="url(#26d18eebc8)"><path fill="#ffffff" d="M 0.34375 0 L 47.65625 0 L 47.65625 34.007812 L 0.34375 34.007812 Z M 0.34375 0 " fill-opacity="1" fill-rule="nonzero"/></g><g clip-path="url(#407780c8d4)"><g clip-path="url(#35263b8712)"><path fill="#333847" d="M 0.34375 0 L 47.097656 0 L 47.097656 33.527344 L 0.34375 33.527344 Z M 0.34375 0 " fill-opacity="1" fill-rule="nonzero"/></g></g><g clip-path="url(#8c08e8cf5b)"><path fill="#e9edf1" d="M 22.054688 22.476562 C 21.753906 22.476562 21.457031 22.457031 21.160156 22.421875 C 20.863281 22.382812 20.566406 22.328125 20.277344 22.257812 C 19.988281 22.183594 19.703125 22.09375 19.421875 21.984375 C 19.144531 21.878906 18.871094 21.753906 18.609375 21.613281 C 18.34375 21.472656 18.089844 21.316406 17.84375 21.144531 C 17.601562 20.972656 17.367188 20.785156 17.144531 20.582031 C 16.921875 20.382812 16.714844 20.167969 16.519531 19.941406 C 16.324219 19.714844 16.140625 19.476562 15.976562 19.226562 C 15.808594 18.980469 15.660156 18.722656 15.523438 18.453125 C 15.390625 18.1875 15.269531 17.910156 15.171875 17.628906 C 15.070312 17.347656 14.984375 17.0625 14.921875 16.769531 C 14.855469 16.476562 14.808594 16.183594 14.777344 15.882812 C 14.75 15.585938 14.738281 15.289062 14.746094 14.988281 C 14.753906 14.6875 14.777344 14.390625 14.820312 14.09375 C 14.867188 13.796875 14.929688 13.507812 15.007812 13.21875 C 15.085938 12.929688 15.183594 12.648438 15.300781 12.371094 C 15.414062 12.09375 15.546875 11.824219 15.691406 11.5625 C 15.839844 11.304688 16.003906 11.054688 16.183594 10.8125 C 16.359375 10.574219 16.554688 10.34375 16.757812 10.128906 C 16.964844 9.910156 17.183594 9.707031 17.417969 9.515625 C 17.648438 9.328125 17.890625 9.152344 18.144531 8.992188 C 18.394531 8.832031 18.65625 8.6875 18.929688 8.558594 C 19.199219 8.433594 19.476562 8.320312 19.761719 8.226562 C 20.046875 8.132812 20.335938 8.058594 20.628906 8 C 20.921875 7.941406 21.21875 7.902344 21.515625 7.878906 C 21.816406 7.859375 22.113281 7.855469 22.414062 7.867188 C 22.710938 7.882812 23.007812 7.917969 23.304688 7.96875 C 23.597656 8.019531 23.890625 8.089844 24.175781 8.175781 C 24.460938 8.261719 24.742188 8.367188 25.015625 8.488281 C 25.289062 8.609375 25.554688 8.746094 25.8125 8.902344 C 26.066406 9.054688 26.3125 9.226562 26.550781 9.410156 C 26.785156 9.59375 27.011719 9.792969 27.222656 10.003906 C 27.734375 10.515625 28.160156 11.089844 28.5 11.726562 C 28.839844 12.363281 29.082031 13.035156 29.222656 13.746094 C 29.363281 14.453125 29.398438 15.167969 29.328125 15.886719 C 29.257812 16.605469 29.085938 17.300781 28.808594 17.96875 C 28.53125 18.632812 28.164062 19.246094 27.703125 19.804688 C 27.246094 20.363281 26.714844 20.84375 26.113281 21.246094 C 25.515625 21.648438 24.867188 21.953125 24.175781 22.160156 C 23.484375 22.371094 22.777344 22.476562 22.054688 22.476562 Z M 22.054688 9.46875 C 21.617188 9.46875 21.183594 9.519531 20.757812 9.617188 C 20.332031 9.714844 19.921875 9.859375 19.53125 10.054688 C 19.136719 10.246094 18.769531 10.480469 18.433594 10.757812 C 18.09375 11.035156 17.789062 11.347656 17.523438 11.691406 C 17.257812 12.039062 17.03125 12.410156 16.851562 12.808594 C 16.671875 13.207031 16.535156 13.621094 16.449219 14.050781 C 16.363281 14.480469 16.328125 14.914062 16.34375 15.351562 C 16.355469 15.789062 16.417969 16.21875 16.53125 16.640625 C 16.644531 17.0625 16.804688 17.46875 17.011719 17.855469 C 17.214844 18.238281 17.464844 18.597656 17.75 18.925781 C 18.039062 19.253906 18.359375 19.546875 18.714844 19.804688 C 19.070312 20.058594 19.453125 20.269531 19.855469 20.4375 C 20.261719 20.605469 20.679688 20.726562 21.109375 20.796875 C 21.542969 20.867188 21.976562 20.890625 22.410156 20.859375 C 22.847656 20.832031 23.277344 20.753906 23.695312 20.628906 C 24.113281 20.5 24.511719 20.328125 24.890625 20.109375 C 25.269531 19.890625 25.621094 19.632812 25.9375 19.332031 C 26.257812 19.035156 26.539062 18.703125 26.78125 18.339844 C 27.023438 17.972656 27.222656 17.585938 27.378906 17.179688 C 27.53125 16.769531 27.636719 16.347656 27.695312 15.914062 C 27.75 15.480469 27.757812 15.046875 27.714844 14.609375 C 27.671875 14.175781 27.578125 13.75 27.4375 13.335938 C 27.296875 12.921875 27.113281 12.527344 26.878906 12.15625 C 26.648438 11.785156 26.378906 11.445312 26.070312 11.136719 C 25.535156 10.601562 24.921875 10.191406 24.226562 9.902344 C 23.53125 9.617188 22.808594 9.46875 22.054688 9.46875 Z M 22.054688 9.46875 " fill-opacity="1" fill-rule="nonzero"/></g><g clip-path="url(#f84489ccb1)"><path fill="#e9edf1" d="M 32.414062 26.332031 C 32.191406 26.332031 32.003906 26.253906 31.847656 26.097656 L 26.085938 20.339844 C 25.929688 20.183594 25.851562 19.992188 25.851562 19.769531 C 25.851562 19.546875 25.929688 19.359375 26.085938 19.203125 C 26.242188 19.046875 26.429688 18.96875 26.652344 18.96875 C 26.875 18.96875 27.066406 19.046875 27.222656 19.203125 L 32.980469 24.964844 C 33.230469 25.21875 33.289062 25.507812 33.152344 25.835938 C 33.015625 26.167969 32.769531 26.332031 32.414062 26.332031 Z M 32.414062 26.332031 " fill-opacity="1" fill-rule="nonzero"/></g></svg>